<svg xmlns="http://www.w3.org/2000/svg" fill="none" viewBox="0 0 38 38">
  <g clip-path="url(#2vpcm9Y2mda)">
    <path d="M16.001.47C7.161.47 0 7.638 0 16.471c0 7.074 4.584 13.07 10.938 15.184.803.151 1.093-.344 1.093-.772 0-.38-.01-1.385-.015-2.719-4.454.964-5.392-2.151-5.392-2.151-.729-1.844-1.78-2.34-1.78-2.34-1.449-.988.114-.967.114-.967 1.604.109 2.448 1.645 2.448 1.645 1.428 2.448 3.745 1.74 4.662 1.328.14-1.031.557-1.74 1.01-2.135-3.551-.401-7.287-1.776-7.287-7.908 0-1.75.62-3.177 1.645-4.297-.177-.401-.719-2.031.141-4.235 0 0 1.34-.427 4.4 1.64a15.438 15.438 0 014.001-.54c1.36.009 2.72.187 4 .54 3.043-2.067 4.381-1.64 4.381-1.64.86 2.204.317 3.833.161 4.235 1.016 1.12 1.636 2.547 1.636 4.297 0 6.146-3.74 7.5-7.297 7.892.556.479 1.077 1.464 1.077 2.959 0 2.14-.02 3.864-.02 4.385 0 .416.28.916 1.104.755C27.42 29.534 32 23.534 32 16.47c0-8.833-7.161-16-16.001-16h.002z" fill="#000"/>
  </g>
  <defs>
    <clipPath id="2vpcm9Y2mda">
      <path fill="#fff" d="M0 0h38v38H0z"/>
    </clipPath>
  </defs>
</svg>
