<svg xmlns="http://www.w3.org/2000/svg" fill="none" viewBox="0 0 70 35">
  <path fill-rule="evenodd" clip-rule="evenodd" d="M3.7 35C1.55 35-.215 33.252.021 31.117 1.954 13.615 16.804 0 34.836 0 52.87 0 67.72 13.615 69.652 31.117c.236 2.135-1.53 3.883-3.68 3.883h-3.891c0-15.034-12.198-27.222-27.245-27.222C19.79 7.778 7.592 19.966 7.592 35H3.7z" fill="url(#E90uPhTd7a)"/>
  <path fill-rule="evenodd" clip-rule="evenodd" d="M11.448 35c0-12.887 10.447-23.333 23.334-23.333 12.886 0 23.333 10.446 23.333 23.333h-7.778c0-8.591-6.964-15.556-15.555-15.556S19.226 26.41 19.226 35h-7.778z" fill="url(#E90uPhTd7b)"/>
  <path fill-rule="evenodd" clip-rule="evenodd" d="M23.115 35c0-6.443 5.224-11.667 11.667-11.667S46.448 28.557 46.448 35h-5.833c-1.074 0-1.904-.923-2.42-1.865a3.888 3.888 0 00-6.827 0c-.515.942-1.346 1.865-2.42 1.865h-5.833z" fill="url(#E90uPhTd7c)"/>
  <defs>
    <linearGradient id="E90uPhTd7a" x1="3.656" y1="35" x2="34.836" y2="35" gradientUnits="userSpaceOnUse">
      <stop stop-color="#1877F2"/>
      <stop offset="1" stop-color="#04A4F4"/>
    </linearGradient>
    <linearGradient id="E90uPhTd7b" x1="15.276" y1="35" x2="34.782" y2="35" gradientUnits="userSpaceOnUse">
      <stop stop-color="#2ABBA7"/>
      <stop offset="1" stop-color="#45BD62"/>
    </linearGradient>
    <linearGradient id="E90uPhTd7c" x1="26.912" y1="35" x2="34.782" y2="35" gradientUnits="userSpaceOnUse">
      <stop stop-color="#F02849"/>
      <stop offset="1" stop-color="#F5533D"/>
    </linearGradient>
  </defs>
</svg>
