<svg xmlns="http://www.w3.org/2000/svg" fill="none" viewBox="0 0 68 31">
  <path d="M53.064 12.953l-1.393-.557C45.126 27.124 19.087 18.17 17.52 22.551c-.261 2.96 14.22.563 24.572 1.065 3.157.153 4.74 2.536 3.4 6.42l2.64.008c3.046-9.495 12.767-4.649 13.173-7.783-.668-2.06-11.172 0-8.24-9.308z" fill="#fff"/>
  <path d="M46.24 28.412c.417-1.392.278-2.785-.418-3.62-.697-.837-1.672-1.394-2.925-1.533l-24.234-.278c-.14 0-.279-.14-.418-.14-.139-.139-.139-.278 0-.417.14-.279.279-.418.557-.418l24.373-.279c2.925-.14 5.99-2.507 7.104-5.292l1.392-3.621c0-.14.14-.28 0-.418C50.14 5.293 43.733 0 36.211 0 29.249 0 23.26 4.457 21.17 10.724c-1.393-.975-3.064-1.532-5.014-1.392-3.343.278-5.989 3.064-6.407 6.406-.14.836 0 1.672.14 2.507C4.457 18.385 0 22.841 0 28.412c0 .557 0 .975.14 1.532 0 .28.278.418.417.418h44.708c.278 0 .557-.139.557-.418l.418-1.532z" fill="#F4811F"/>
  <path d="M53.9 12.813h-.697c-.139 0-.278.14-.417.279l-.975 3.343c-.418 1.392-.279 2.785.418 3.62.696.837 1.67 1.393 2.924 1.533l5.154.278c.139 0 .278.14.417.14.14.139.14.278 0 .417-.139.28-.278.418-.557.418l-5.292.279c-2.925.14-5.99 2.507-7.103 5.292l-.279 1.254c-.14.14 0 .418.279.418h18.384c.279 0 .418-.14.418-.418.278-1.114.557-2.368.557-3.621 0-7.243-5.989-13.232-13.231-13.232z" fill="#FAAD3F"/>
</svg>
