<svg xmlns="http://www.w3.org/2000/svg" fill="none" viewBox="0 0 26 26">
  <path d="M23.5 12a2.5 2.5 0 000-5A2.5 2.5 0 0021 9.5V12h2.5zm-7 0A2.5 2.5 0 0019 9.5v-7a2.5 2.5 0 00-5 0v7a2.5 2.5 0 002.5 2.5z" fill="#2EB67D"/>
  <path d="M2.5 14a2.5 2.5 0 000 5A2.5 2.5 0 005 16.5V14H2.5zm7 0A2.5 2.5 0 007 16.5v7a2.5 2.5 0 005 0v-7A2.5 2.5 0 009.5 14z" fill="#E01E5A"/>
  <path d="M14 23.5a2.5 2.5 0 005 0 2.5 2.5 0 00-2.5-2.5H14v2.5zm0-7a2.5 2.5 0 002.5 2.5h7a2.5 2.5 0 000-5h-7a2.5 2.5 0 00-2.5 2.5z" fill="#ECB22E"/>
  <path d="M12 2.5a2.5 2.5 0 00-5 0A2.5 2.5 0 009.5 5H12V2.5zm0 7A2.5 2.5 0 009.5 7h-7a2.5 2.5 0 000 5h7A2.5 2.5 0 0012 9.5z" fill="#36C5F0"/>
</svg>
