<svg xmlns="http://www.w3.org/2000/svg" fill="none" viewBox="0 0 58 35">
  <g clip-path="url(#Xq6KOjdiYSa)">
    <path d="M5.383 0h47.211c2.988 0 5.407 2.442 5.407 5.459v18.196c0 3.016-2.419 5.459-5.407 5.459h-16.93l2.324 5.745-10.22-5.745H5.407c-2.988 0-5.406-2.442-5.406-5.46V5.46C-.023 2.466 2.396 0 5.383 0z" fill="#7F54B3"/>
    <path d="M3.303 4.975c.33-.452.825-.69 1.485-.737 1.203-.096 1.886.476 2.051 1.714.731 4.975 1.533 9.188 2.382 12.64l5.163-9.926c.472-.905 1.061-1.381 1.768-1.429 1.038-.071 1.674.595 1.934 2 .59 3.166 1.344 5.856 2.24 8.141.613-6.046 1.65-10.403 3.112-13.093.354-.666.872-1 1.556-1.047.542-.048 1.037.119 1.485.476.448.357.684.81.731 1.357.024.428-.047.785-.236 1.142-.919 1.714-1.674 4.595-2.286 8.594-.59 3.88-.802 6.904-.66 9.07.047.595-.048 1.12-.284 1.571-.282.524-.707.81-1.25.857-.612.048-1.249-.238-1.862-.88-2.192-2.262-3.937-5.642-5.21-10.142a448.201 448.201 0 00-3.395 6.856c-1.391 2.69-2.57 4.071-3.56 4.143-.637.047-1.18-.5-1.65-1.643-1.203-3.119-2.5-9.141-3.891-18.069-.094-.619.047-1.166.377-1.595zM53.97 8.713c-.848-1.5-2.098-2.405-3.772-2.762a6.132 6.132 0 00-1.273-.142c-2.264 0-4.102 1.19-5.54 3.57-1.227 2.024-1.84 4.262-1.84 6.714 0 1.833.377 3.404 1.132 4.713.849 1.5 2.098 2.405 3.772 2.762.448.095.872.143 1.273.143 2.287 0 4.126-1.19 5.54-3.571 1.227-2.048 1.84-4.286 1.84-6.737.024-1.857-.377-3.404-1.132-4.69zM51 15.307c-.33 1.571-.92 2.738-1.792 3.524-.684.618-1.32.88-1.91.761-.566-.119-1.037-.619-1.391-1.547a6.094 6.094 0 01-.425-2.166c0-.596.048-1.19.166-1.738a7.736 7.736 0 011.25-2.833c.777-1.167 1.602-1.643 2.451-1.476.566.119 1.038.619 1.391 1.547.283.738.425 1.476.425 2.167A8.43 8.43 0 0151 15.307zM39.21 8.713c-.848-1.5-2.121-2.405-3.771-2.762a6.132 6.132 0 00-1.274-.142c-2.263 0-4.102 1.19-5.54 3.57-1.226 2.024-1.84 4.262-1.84 6.714 0 1.833.378 3.404 1.133 4.713.848 1.5 2.098 2.405 3.772 2.762.448.095.872.143 1.273.143 2.287 0 4.126-1.19 5.54-3.571 1.227-2.048 1.84-4.286 1.84-6.737 0-1.857-.378-3.404-1.132-4.69zm-2.993 6.594c-.33 1.571-.92 2.738-1.792 3.524-.684.618-1.32.88-1.91.761-.566-.119-1.037-.619-1.391-1.547a6.094 6.094 0 01-.424-2.166c0-.596.047-1.19.165-1.738a7.735 7.735 0 011.25-2.833c.777-1.167 1.602-1.643 2.451-1.476.566.119 1.038.619 1.391 1.547.283.738.425 1.476.425 2.167a7.096 7.096 0 01-.165 1.761z" fill="#fff"/>
  </g>
  <defs>
    <clipPath id="Xq6KOjdiYSa">
      <path fill="#fff" d="M0 0h58v35H0z"/>
    </clipPath>
  </defs>
</svg>
